<svg xmlns="http://www.w3.org/2000/svg" width="175.926" height="175.926" viewBox="0 0 175.926 175.926">
  <g id="average_icon" data-name="average icon" transform="translate(582.024 -234.756)">
    <g id="Group_2511" data-name="Group 2511" transform="translate(-582.024 234.756)">
      <path id="Path_5859" data-name="Path 5859" d="M-406.1,288.015q-8.1,8.043-16.193,16.091c-.81.807-1.561,1.672-2.218,2.378l-7.381-7.425,5.771-5.524-.209-.452h-1.783c-6.356,0-12.712-.033-19.066.028a2.684,2.684,0,0,1-2.616-1.422c-6.536-10.218-13.147-20.388-19.685-30.6a2.254,2.254,0,0,0-2.485-1.19,12.244,12.244,0,0,1-12.131-5.858,2.263,2.263,0,0,0-2.187-1.205c-5.21.049-10.421.041-15.631.006a2.085,2.085,0,0,0-2.065,1.112,12.764,12.764,0,0,1-10.35,6.153,2.894,2.894,0,0,0-1.978,1.14c-3.544,5.878-6.972,11.825-10.48,17.725a1.856,1.856,0,0,0,.034,2.278,12.419,12.419,0,0,1-3.955,17.268,12.517,12.517,0,0,1-17.26-4.2,2.6,2.6,0,0,0-1.752-1.174c-7.042-.08-14.084-.049-21.127-.043a6.944,6.944,0,0,0-.763.095V400.374H-406.1v10.308H-582.024V234.756h10.308v47.809a3.11,3.11,0,0,0,.65.189c7.151.011,14.3.036,21.452-.025a2.236,2.236,0,0,0,1.526-1,12.327,12.327,0,0,1,9.919-6.2,2.793,2.793,0,0,0,2.477-1.657q4.927-8.539,9.983-17a2.661,2.661,0,0,0,.061-3.193,12.529,12.529,0,0,1,6.986-18.274c.642-.211,1.282-.428,1.924-.643h4.123c4.05,1.164,7.366,3.253,9.333,7.168.189.377,1.038.588,1.583.594,4.176.048,8.355-.07,12.528.063,2.5.079,4.418-.082,5.826-2.767,1.545-2.947,4.728-4.127,7.84-5.057h4.123a5.607,5.607,0,0,0,.77.318c7.85,1.98,11.775,9.668,8.9,17.282a2.949,2.949,0,0,0,.344,2.273c5.722,8.97,11.523,17.89,17.262,26.849a2.4,2.4,0,0,0,2.318,1.325c4.751-.068,9.5-.025,14.254-.035a12.324,12.324,0,0,0,1.25-.125l.279-.446-6.043-5.449,7.386-7.411c5.569,5.569,11.231,11.238,16.9,16.9.516.515,1.1.96,1.655,1.438Z" transform="translate(582.024 -234.756)" fill="#fff"/>
      <path id="Path_5860" data-name="Path 5860" d="M-372.2,377.924h31.751v106.04H-372.2Z" transform="translate(444.296 -328.731)" fill="#fff"/>
      <path id="Path_5861" data-name="Path 5861" d="M-507.948,483.828h31.718v69.629h-31.718Z" transform="translate(533.401 -398.245)" fill="#fff"/>
      <path id="Path_5862" data-name="Path 5862" d="M-234.27,483.843h31.717v69.623H-234.27Z" transform="translate(353.76 -398.255)" fill="#fff"/>
    </g>
  </g>
</svg>
