<svg id="Group_2775" data-name="Group 2775" xmlns="http://www.w3.org/2000/svg" width="76.924" height="71.972" viewBox="0 0 76.924 71.972">
  <path id="Path_6099" data-name="Path 6099" d="M5005,3536.5a14.192,14.192,0,0,1,.7-2.6c1.226-2.564,3.4-3.617,6.17-3.615q18.866.008,37.732,0h1.379v-.907q0-4.126,0-8.251c0-1.708.27-1.974,2.013-1.975h5.358c.02-.341.049-.622.05-.9,0-2.8,0-5.608,0-8.412,0-1.482.377-1.86,1.835-1.862q5.049,0,10.094,0c1.318,0,1.733.4,1.736,1.715.01,2.831,0,5.661,0,8.491v.969h1.744c1.649,0,1.98.327,1.981,1.948q0,4.126,0,8.251v.81a16.324,16.324,0,0,1,2.584.757,5.717,5.717,0,0,1,3.524,5.211,19.334,19.334,0,0,1-.332,4.83,5.83,5.83,0,0,1-5.151,4.17c-.371.032-.746.042-1.12.042q-31.762,0-63.527.009a6.2,6.2,0,0,1-6.086-3.606,13.942,13.942,0,0,1-.691-2.512Zm38.524,6.222q15.858,0,31.716,0a4.244,4.244,0,0,0,3.1-1.05c1.7-1.609,1.711-6.24.016-7.851a4.3,4.3,0,0,0-3.176-1.037q-31.635.019-63.271.009c-.241,0-.481,0-.721.009a3.473,3.473,0,0,0-3.472,2.865,14.076,14.076,0,0,0,0,4.133c.292,1.9,1.882,2.917,4.1,2.917Q5027.666,3542.727,5043.523,3542.725Zm17.442-32.239v8.608h8.555v-8.608Zm1.149,11.183h-8.609v8.562h8.609Zm2.519,8.565h8.591v-8.553h-8.591Z" transform="translate(-5005 -3473.213)" fill="#fff"/>
  <path id="Path_6100" data-name="Path 6100" d="M5035.122,3291a1.748,1.748,0,0,1,.979,1.825c-.045,1.921,0,3.844-.022,5.765a.665.665,0,0,0,.511.75c1.071.4,2.132.833,3.169,1.313a.716.716,0,0,0,.967-.177c1.363-1.394,2.745-2.766,4.128-4.139.9-.892,1.476-.89,2.378.006q2.328,2.314,4.64,4.645c.885.894.88,1.476-.02,2.376-1.509,1.509-3.024,3.01-4.479,4.456.534,1.348,1.008,2.62,1.557,3.859a1.01,1.01,0,0,0,.771.432c1.947.036,3.9.015,5.846.021,1.2,0,1.634.425,1.641,1.641q.019,3.323,0,6.647c-.008,1.185-.47,1.627-1.675,1.634-1.923.01-3.844.018-5.766-.008a.8.8,0,0,0-.923.625,29.693,29.693,0,0,1-1.26,3.019.744.744,0,0,0,.2,1.018c1.375,1.343,2.728,2.707,4.082,4.071.92.926.915,1.5-.015,2.435q-2.262,2.268-4.532,4.529c-1,1-1.533.99-2.555-.03-1.472-1.47-2.941-2.943-4.38-4.382-1.332.53-2.624,1.018-3.885,1.573a.94.94,0,0,0-.373.727c-.031,1.948-.013,3.9-.019,5.845,0,1.229-.4,1.63-1.629,1.635q-3.324.013-6.647,0c-1.25,0-1.646-.42-1.649-1.707,0-1.922-.018-3.844.01-5.766a.759.759,0,0,0-.6-.859,31.428,31.428,0,0,1-3.021-1.253.786.786,0,0,0-1.084.21c-1.338,1.379-2.707,2.73-4.071,4.083-.9.9-1.463.892-2.374-.013q-2.3-2.286-4.587-4.586c-.955-.957-.947-1.509.029-2.489,1.357-1.361,2.707-2.73,4.085-4.069a.7.7,0,0,0,.153-.957c-.474-1.011-.905-2.045-1.291-3.092a.717.717,0,0,0-.8-.565c-1.9.022-3.79.011-5.685.009-1.218,0-1.474-.171-1.925-1.255v-7.531a1.7,1.7,0,0,1,1.916-1.157c1.893.058,3.79,0,5.685.026a.715.715,0,0,0,.8-.566c.4-1.072.846-2.126,1.321-3.167a.654.654,0,0,0-.152-.887c-1.413-1.379-2.805-2.781-4.2-4.182-.849-.854-.857-1.472-.016-2.321q2.308-2.333,4.639-4.646c.919-.915,1.523-.915,2.445,0,1.363,1.355,2.73,2.705,4.07,4.084a.762.762,0,0,0,1.035.172c.986-.462,1.995-.887,3.019-1.257a.75.75,0,0,0,.605-.845c-.029-1.895.016-3.791-.024-5.685a1.81,1.81,0,0,1,.966-1.843Zm-22.37,11.247c1.485,1.475,2.957,2.946,4.44,4.4a1.345,1.345,0,0,1,.319,1.8,18.235,18.235,0,0,0-2.132,5.15,1.249,1.249,0,0,1-1.37.985c-1.389-.01-2.777,0-4.164,0h-2.221v4.961c2.093,0,4.122.006,6.15,0a1.514,1.514,0,0,1,1.622,1.014c.677,1.729,1.393,3.445,2.131,5.149a1.412,1.412,0,0,1-.283,1.746c-1.08,1.072-2.147,2.157-3.231,3.225-.43.423-.889.814-1.26,1.152l3.537,3.554c.147-.137.344-.308.529-.492,1.286-1.282,2.563-2.573,3.855-3.848.712-.7,1.1-.689,2.005-.277,1.545.7,3.112,1.364,4.7,1.965,1,.379,1.273.636,1.279,1.739.009,1.761,0,3.524,0,5.286,0,.281.027.563.043.843h4.914c0-2.053,0-4.051,0-6.049,0-1.255.24-1.461,1.411-1.872a38.012,38.012,0,0,0,4.2-1.718c1.358-.668,1.56-.713,2.638.366,1.372,1.375,2.743,2.751,4.054,4.065,1.2-1.205,2.346-2.348,3.518-3.521-1.418-1.415-2.882-2.893-4.367-4.35a1.492,1.492,0,0,1-.317-1.877q1.094-2.476,2.07-5a1.456,1.456,0,0,1,1.4-1.088c.427-.011.855,0,1.282,0h5.1v-4.962c-2.124,0-4.176-.011-6.229.006-.756.007-1.336-.24-1.521-1.006a18.105,18.105,0,0,0-2.129-5.153,1.288,1.288,0,0,1,.223-1.682c.3-.308.6-.606.9-.908l3.525-3.526-3.493-3.525c-1.371,1.372-2.8,2.81-4.237,4.24-.807.8-1.159.777-2.2.291-1.465-.687-2.962-1.32-4.483-1.874-1.1-.4-1.351-.592-1.358-1.74-.009-1.548,0-3.1,0-4.645v-1.481h-4.959c0,2.083.007,4.108,0,6.134-.006,1.079-.3,1.36-1.309,1.715a35.8,35.8,0,0,0-4.14,1.658c-1.621.812-1.684.875-2.954-.4-1.333-1.335-2.662-2.675-3.969-3.989Z" transform="translate(-5005 -3291)" fill="#fff"/>
  <path id="Path_6101" data-name="Path 6101" d="M5225.928,3670.707a3.713,3.713,0,0,1,3.76,3.661,3.725,3.725,0,0,1-7.449.071A3.713,3.713,0,0,1,5225.928,3670.707Zm1.249,3.69a1.212,1.212,0,1,0-2.423.007,1.212,1.212,0,1,0,2.423-.007Z" transform="translate(-5187.432 -3609.867)" fill="#fff"/>
  <path id="Path_6102" data-name="Path 6102" d="M5303.561,3670.715a3.679,3.679,0,0,1,3.674,3.727,3.7,3.7,0,1,1-7.4-.065A3.657,3.657,0,0,1,5303.561,3670.715Zm1.193,3.663a1.228,1.228,0,1,0-2.455.059,1.226,1.226,0,0,0,1.259,1.177A1.21,1.21,0,0,0,5304.754,3674.378Z" transform="translate(-5252.593 -3609.874)" fill="#fff"/>
  <path id="Path_6103" data-name="Path 6103" d="M5071.174,3670.7a3.714,3.714,0,0,1,3.728,3.693,3.719,3.719,0,0,1-7.437.009A3.7,3.7,0,0,1,5071.174,3670.7Zm-.013,4.906a1.181,1.181,0,0,0,1.222-1.2,1.226,1.226,0,0,0-1.191-1.244,1.255,1.255,0,0,0-1.236,1.212A1.215,1.215,0,0,0,5071.161,3675.608Z" transform="translate(-5057.456 -3609.864)" fill="#fff"/>
  <path id="Path_6104" data-name="Path 6104" d="M5152.354,3674.378a3.7,3.7,0,1,1-3.729-3.663A3.661,3.661,0,0,1,5152.354,3674.378Zm-2.467.057a1.229,1.229,0,0,0-2.457-.056,1.229,1.229,0,0,0,2.457.056Z" transform="translate(-5122.53 -3609.874)" fill="#fff"/>
  <path id="Path_6105" data-name="Path 6105" d="M5384.531,3674.384a3.716,3.716,0,1,1-3.732-3.675A3.69,3.69,0,0,1,5384.531,3674.384Zm-3.72-1.21a1.225,1.225,0,0,0-1.2,1.239,1.179,1.179,0,0,0,1.217,1.2,1.222,1.222,0,0,0,1.212-1.222A1.26,1.26,0,0,0,5380.811,3673.174Z" transform="translate(-5317.479 -3609.869)" fill="#fff"/>
  <path id="Path_6106" data-name="Path 6106" d="M5110.234,3382.423a13.63,13.63,0,1,1-13.59-13.677A13.643,13.643,0,0,1,5110.234,3382.423Zm-13.656,11.092a11.157,11.157,0,1,0-11.139-11.176A11.171,11.171,0,0,0,5096.578,3393.515Z" transform="translate(-5070.48 -3356.289)" fill="#fff"/>
  <path id="Path_6107" data-name="Path 6107" d="M5116.03,3391.932a9.92,9.92,0,1,1-9.933,9.923A9.915,9.915,0,0,1,5116.03,3391.932Zm7.421,9.914a7.422,7.422,0,1,0-7.452,7.415A7.492,7.492,0,0,0,5123.452,3401.846Z" transform="translate(-5089.899 -3375.76)" fill="#fff"/>
</svg>
