<svg id="Group_2778" data-name="Group 2778" xmlns="http://www.w3.org/2000/svg" width="68.941" height="68.889" viewBox="0 0 68.941 68.889">
  <path id="Path_6113" data-name="Path 6113" d="M5612.384,3538.693h-65.4a3.377,3.377,0,0,1-1.749-1.749v-2.556c.74-1.875,2.347-1.862,3.993-1.735v-17.962c-1.5-.061-3.178.409-3.993-1.426v-6.054c1.243-1.9,2.5-3.8,3.717-5.717a2.077,2.077,0,0,0,.307-1.052c.021-4.453.014-8.906.012-13.36,0-.216-.022-.431-.033-.639a20.3,20.3,0,0,1-2.374-.194c-.865-.171-1.275-.9-1.628-1.642v-2.422a2.738,2.738,0,0,1,2.972-1.883c5.809.039,11.617.016,17.427.016h.785c.048-.108.081-.165.1-.227.042-.128.077-.257.114-.386a13.293,13.293,0,0,1,3.27-5.714c.558-.579,1.118-.654,1.583-.219s.413,1.027-.118,1.6a11.448,11.448,0,0,0-3.14,9.3,11.534,11.534,0,1,0,10.182-12.756,27.973,27.973,0,0,0-3.368.873,1.01,1.01,0,0,1-1.323-.571.981.981,0,0,1,.548-1.281,5.274,5.274,0,0,1,.5-.2,13.556,13.556,0,0,1,17.715,8.164c.16.459.3.927.454,1.419h5.405q6.594,0,13.188,0a2.389,2.389,0,0,1,2.61,2.582c0,.359.007.718,0,1.076a2.335,2.335,0,0,1-2.37,2.4c-.531.013-1.064,0-1.626,0-.017.2-.037.329-.038.458q0,6.9.01,13.791a1.608,1.608,0,0,0,.263.8c1.086,1.726,2.222,3.421,3.275,5.166a3.574,3.574,0,0,1,.466,1.62c.065,1.386.023,2.779.021,4.169a2.03,2.03,0,0,1-2.317,2.3c-.553,0-1.106,0-1.664,0v17.953c.616,0,1.177-.018,1.735,0a2.127,2.127,0,0,1,2.092,1.6C5614.359,3536.441,5614.353,3537.763,5612.384,3538.693Zm-31.648-6.1h7.072v-.759q0-3.5,0-6.992a3.311,3.311,0,0,1,.052-.734.91.91,0,0,1,1.025-.767.9.9,0,0,1,.908.827,4.2,4.2,0,0,1,.029.67q0,3.53,0,7.059c0,.235.024.469.036.7h18.164v-17.874h-18.2v.762c0,1.3.007,2.6,0,3.9-.006.782-.4,1.251-1.012,1.242s-.991-.477-1-1.265c-.011-.9,0-1.793,0-2.689v-1.938h-7.072Zm31.36-23.937h-64.818v3.949H5612.1Zm-.855-2.1c-.734-1.151-1.456-2.2-2.082-3.3a1.676,1.676,0,0,0-1.691-.947q-20.177.048-40.354.023c-5.224,0-10.447.006-15.671-.01a.98.98,0,0,0-.967.529c-.661,1.091-1.368,2.156-2.052,3.233a5.062,5.062,0,0,0-.234.469Zm-41.731,8.187h-18.18v17.843h18.18Zm-18.185-14.458c.252.011.471.03.689.031,3.25,0,6.5-.017,9.747.017.636.007.78-.192.777-.793-.024-4.122-.012-8.244-.015-12.366,0-.24-.02-.479-.032-.737h-11.166Zm56.72-.009v-13.862c-.249-.011-.467-.031-.685-.031-3.25,0-6.5.015-9.747-.016-.625-.006-.788.171-.785.784.025,4.144.013,8.289.015,12.433,0,.218.018.436.029.692Zm-28.293,34.377h-31.487a4.163,4.163,0,0,0-.6.011c-.119.017-.324.1-.328.168a5.969,5.969,0,0,0,0,1.589c.029.143.6.244.93.244q31.419.017,62.839.01a4.154,4.154,0,0,0,.6-.011c.12-.018.323-.105.328-.173a5.96,5.96,0,0,0,0-1.588c-.029-.141-.6-.241-.931-.241Q5595.428,3534.644,5579.751,3534.653Zm-8.157-2.075h7.025v-17.84h-7.025Zm7.043-35.64c-6.393-.921-10.429-4.442-12.22-10.5h-1.826a3.757,3.757,0,0,0-.043.385c0,4.306.006,8.61-.015,12.916,0,.58.288.581.71.58q6.358-.012,12.717-.005h.677Zm16.137-10.557a7.03,7.03,0,0,1-1.067-.009c-.65-.107-.842.2-1.029.784a13.338,13.338,0,0,1-9.648,9.322c-.747.208-1.523.309-2.3.462v3.333h14.042Zm-28.669-4.043h-.694q-8.64,0-17.279.006c-.257,0-.722.051-.737.14a5.9,5.9,0,0,0-.07,1.637c.013.109.522.232.8.233q8.673.021,17.347.01h.631Zm27.137,2.025H5611.3c.134,0,.3.046.4-.015a.951.951,0,0,0,.4-.421,2.132,2.132,0,0,0,.019-.667c0-.92,0-.921-.944-.922h-17.928Z" transform="translate(-5545.233 -3469.804)" fill="#fff"/>
  <path id="Path_6114" data-name="Path 6114" d="M5754.018,3502.759c0-.459-.012-.9,0-1.344a3.1,3.1,0,0,1,6.2-.014c.017.442,0,.885,0,1.354.222.02.373.042.524.046a1.893,1.893,0,0,1,2.147,1.964q.49,4.135,1,8.267a2.23,2.23,0,0,1-2.3,2.711q-4.471.04-8.94,0a2.232,2.232,0,0,1-2.316-2.7q.512-4.132,1-8.266a1.9,1.9,0,0,1,2.134-1.978C5753.633,3502.8,5753.786,3502.778,5754.018,3502.759Zm-.049,2.135c-.449-.184-.592-.023-.645.423q-.459,3.934-.969,7.861c-.048.371.024.556.426.555q4.334-.005,8.668,0c.386,0,.495-.155.445-.542q-.511-3.961-.979-7.928c-.061-.514-.288-.508-.684-.348,0,.337.008.649,0,.961-.021.694-.391,1.1-.991,1.106a1.01,1.01,0,0,1-1.021-1.09c-.016-.345,0-.692,0-1.038h-2.141c-.161.821.319,2.085-1.053,2.093C5753.613,3506.958,5754.162,3505.669,5753.969,3504.895Zm2.045-2.13h2.2c-.1-.758.311-1.6-.495-2.1a1.324,1.324,0,0,0-1.113-.059C5755.707,3501.063,5756.13,3501.959,5756.014,3502.764Z" transform="translate(-5722.673 -3494.567)" fill="#fff"/>
  <path id="Path_6115" data-name="Path 6115" d="M5898.045,3840.448c-1.614,0-3.229,0-4.845,0a2,2,0,0,1-2.219-2.2q-.027-3.129,0-6.256a1.969,1.969,0,0,1,2.2-2.2q4.91-.015,9.823,0a1.967,1.967,0,0,1,2.181,2.219q.007,3.128,0,6.256a1.988,1.988,0,0,1-2.164,2.183C5901.365,3840.454,5899.7,3840.448,5898.045,3840.448Zm5.088-2.037v-6.553h-10.082v6.553Z" transform="translate(-5844.363 -3781.256)" fill="#fff"/>
  <path id="Path_6116" data-name="Path 6116" d="M5612.3,3829.794c1.592,0,3.185-.007,4.777,0a1.982,1.982,0,0,1,2.244,2.231q.014,3.094,0,6.189a2.014,2.014,0,0,1-2.251,2.24q-4.878.005-9.756,0a2,2,0,0,1-2.2-2.211q-.01-3.128,0-6.256a1.97,1.97,0,0,1,2.209-2.192C5608.983,3829.787,5610.643,3829.795,5612.3,3829.794Zm-5.147,8.612h10.109v-6.544h-10.109Z" transform="translate(-5597.038 -3781.266)" fill="#fff"/>
</svg>
