<svg id="h4lsfv.tif" xmlns="http://www.w3.org/2000/svg" width="71.458" height="71.428" viewBox="0 0 71.458 71.428">
  <g id="Group_2772" data-name="Group 2772" transform="translate(0)">
    <path id="Path_6084" data-name="Path 6084" d="M5093.429,3595.047c1.331.183,2.662.363,3.992.549.253.035.5.085.753.14a1.414,1.414,0,0,1,1.225,1.647,1.474,1.474,0,0,1-1.749,1.1,50.2,50.2,0,0,0-6.718-.6c-12.779.384-22.63,6.085-28.644,17.324-6.458,12.067-5.285,23.974,2.505,35.22.13.188.283.359.418.529,3.423-1.257,6.247-.468,7.84,2.169a5.853,5.853,0,0,1-8.534,7.7c-2.451-1.845-2.961-4.735-1.385-7.96a37.228,37.228,0,0,1-4.376-7.161,35.722,35.722,0,0,1,22.821-49.325c2.2-.6,4.516-.812,6.777-1.206.2-.035.405-.08.608-.121Zm-25.389,58.035a3.067,3.067,0,1,0,3.064,3.044A3.069,3.069,0,0,0,5068.041,3653.082Z" transform="translate(-5055.458 -3595.047)" fill="#fff"/>
    <path id="Path_6085" data-name="Path 6085" d="M5296.726,3660.51c-.178,1.309-.324,2.624-.542,3.926a35.76,35.76,0,0,1-26.72,28.559,36.4,36.4,0,0,1-14.947.414c-.091-.017-.18-.044-.271-.064-1.029-.223-1.508-.809-1.361-1.665.144-.838.84-1.25,1.857-1.067a32.117,32.117,0,0,0,21.5-3.19c9.363-5.04,15.184-12.828,17.123-23.3,1.726-9.323-.424-17.84-5.967-25.513-.121-.169-.251-.332-.306-.4a19.572,19.572,0,0,1-2.976.522,5.762,5.762,0,0,1-5.61-4.286,5.86,5.86,0,0,1,9.623-5.848,5.781,5.781,0,0,1,1.258,6.892,1.053,1.053,0,0,0,.134,1.327,35.308,35.308,0,0,1,7.085,18.769,5.949,5.949,0,0,0,.116.608Zm-12.551-24.553a3.067,3.067,0,1,0-3.077-3.032A3.073,3.073,0,0,0,5284.174,3635.957Z" transform="translate(-5225.268 -3622.563)" fill="#fff"/>
    <path id="Path_6086" data-name="Path 6086" d="M5166.011,3713.494c-1.777.7-3.365,1.342-4.973,1.935-.354.131-.469.286-.458.641.021.7.018,1.4,0,2.092a1.365,1.365,0,0,1-1.462,1.5q-4.289.022-8.579,0a1.35,1.35,0,0,1-1.439-1.448c-.02-.721.024-1.443-.025-2.161a.8.8,0,0,0-.4-.576c-1.6-.662-3.224-1.283-5.03-1.99-.408.44-.929,1.032-1.483,1.592a1.461,1.461,0,0,1-2.4.028q-2.889-2.88-5.768-5.771a1.44,1.44,0,0,1-.01-2.35c.573-.573,1.175-1.118,1.624-1.544-.7-1.793-1.323-3.415-1.979-5.022a.738.738,0,0,0-.52-.385c-.695-.046-1.394-.01-2.091-.021a1.4,1.4,0,0,1-1.567-1.539q-.013-4.185,0-8.37c0-1.065.517-1.564,1.594-1.578.674-.009,1.351.03,2.021-.022a.807.807,0,0,0,.566-.416c.65-1.584,1.261-3.186,1.981-5.031-.385-.354-.959-.852-1.5-1.383-.952-.934-.952-1.622-.028-2.547q2.811-2.812,5.625-5.621a1.5,1.5,0,0,1,2.5-.011c.512.506,1.023,1.015,1.536,1.519.03.03.083.039-.032-.011,1.756-.677,3.4-1.3,5.029-1.959a.753.753,0,0,0,.335-.563c.042-.671.008-1.347.018-2.021a1.39,1.39,0,0,1,1.535-1.568q4.219-.015,8.441,0a1.375,1.375,0,0,1,1.509,1.521c.015.7-.027,1.4.025,2.091a.816.816,0,0,0,.422.562q2.2.959,4.43,1.835a.8.8,0,0,0,.684-.106c.526-.455.991-.98,1.5-1.461a1.382,1.382,0,0,1,2.149-.005q3,2.966,5.971,5.964a1.4,1.4,0,0,1-.008,2.2c-.586.592-1.215,1.142-1.682,1.576.709,1.816,1.328,3.438,1.988,5.042a.807.807,0,0,0,.584.393c.694.05,1.395.008,2.091.023a1.369,1.369,0,0,1,1.5,1.528q.015,4.218,0,8.438a1.382,1.382,0,0,1-1.518,1.518c-.7.015-1.4-.021-2.092.021a.746.746,0,0,0-.555.34c-.661,1.627-1.286,3.271-1.987,5.079.458.432,1.062.974,1.635,1.549a1.427,1.427,0,0,1,.008,2.3q-2.922,2.946-5.869,5.868a1.415,1.415,0,0,1-2.253-.01C5167.024,3714.587,5166.478,3713.984,5166.011,3713.494Zm2.578-1.183,4.336-4.312c-.478-.431-1.01-.88-1.5-1.367a1.442,1.442,0,0,1-.257-2.11,20.072,20.072,0,0,0,2.472-5.952,1.472,1.472,0,0,1,1.721-1.345c.686,0,1.372,0,2.041,0v-5.913c-.741,0-1.437.013-2.129,0a1.447,1.447,0,0,1-1.619-1.3,20.151,20.151,0,0,0-2.5-6.016,1.42,1.42,0,0,1,.234-2.059c.507-.5,1.064-.947,1.488-1.32l-4.263-4.29c.04-.02.016-.014,0,0-.465.456-.925.915-1.392,1.368a1.459,1.459,0,0,1-2.116.258,19.839,19.839,0,0,0-6.02-2.494,1.446,1.446,0,0,1-1.285-1.63c-.011-.691,0-1.383,0-2.095h-5.911c0,.746.011,1.443,0,2.138a1.434,1.434,0,0,1-1.259,1.585,20.206,20.206,0,0,0-6.083,2.518,1.422,1.422,0,0,1-2.055-.266c-.487-.5-.938-1.026-1.391-1.525l-4.287,4.354c.461.428.987.885,1.477,1.378a1.441,1.441,0,0,1,.255,2.06,20.118,20.118,0,0,0-2.5,6.014,1.466,1.466,0,0,1-1.671,1.326c-.689.012-1.379,0-2.093,0v5.826c.072.034.112.069.153.069.649.008,1.3.01,1.951.018a1.457,1.457,0,0,1,1.664,1.329,20.023,20.023,0,0,0,2.471,5.953,1.462,1.462,0,0,1-.286,2.163c-.493.475-1.043.894-1.529,1.305,1.556,1.55,2.919,2.908,4.389,4.373.457-.5.924-1.046,1.43-1.554a1.406,1.406,0,0,1,2-.25,19.893,19.893,0,0,0,6.014,2.5,1.489,1.489,0,0,1,1.354,1.725c.007.687,0,1.374,0,2.063h5.84a.691.691,0,0,0,.056-.167c.007-.65,0-1.3.016-1.951a1.436,1.436,0,0,1,1.276-1.635,20.241,20.241,0,0,0,6.079-2.529,1.407,1.407,0,0,1,2.006.23C5167.669,3711.286,5168.142,3711.83,5168.589,3712.311Z" transform="translate(-5119.101 -3658.561)" fill="#fff"/>
    <path id="Path_6087" data-name="Path 6087" d="M5394.508,3615.719a1.431,1.431,0,0,1-1.406-1.349,1.391,1.391,0,0,1,1.38-1.427,1.369,1.369,0,0,1,1.4,1.332A1.407,1.407,0,0,1,5394.508,3615.719Z" transform="translate(-5345.909 -3610.442)" fill="#fff"/>
    <path id="Path_6088" data-name="Path 6088" d="M5212.47,4069.9a1.346,1.346,0,0,1-1.323,1.408,1.381,1.381,0,0,1-1.443-1.375,1.414,1.414,0,0,1,1.375-1.389A1.379,1.379,0,0,1,5212.47,4069.9Z" transform="translate(-5188.146 -4002.36)" fill="#fff"/>
    <path id="Path_6089" data-name="Path 6089" d="M5239.832,3768.037a11.531,11.531,0,1,1-11.225,11.831A11.564,11.564,0,0,1,5239.832,3768.037Zm.314,20.27a8.742,8.742,0,1,0-8.753-8.733A8.794,8.794,0,0,0,5240.146,3788.307Z" transform="translate(-5204.398 -3743.85)" fill="#fff"/>
  </g>
</svg>
