<svg id="Group_2766" data-name="Group 2766" xmlns="http://www.w3.org/2000/svg" width="84.623" height="72.718" viewBox="0 0 84.623 72.718">
  <path id="Path_6081" data-name="Path 6081" d="M5041,3383.031c.584-1.059,1.633-.786,2.645-.849v-.922q0-8.51,0-17.02c0-1.52.355-1.869,1.9-1.869h13.96v-1.849q0-2.892,0-5.784c0-1.184.449-1.621,1.654-1.622q6.609,0,13.22,0h.992v-.939q0-4.007,0-8.014c0-1.155.448-1.622,1.569-1.623q9.006,0,18.011,0c1.122,0,1.571.466,1.571,1.621q0,10.534,0,21.068v1.109h.9c5.729,0,11.457.014,17.185-.014a1.754,1.754,0,0,1,1.824,1.19c2.522,5.527,5.1,11.031,7.636,16.552a2.76,2.76,0,0,1,.208,1.109c.014,4.406.009,8.813.009,13.219v.888c1.154.446,1.321.689,1.322,1.9,0,1.542.006,3.084,0,4.627-.006,1.037-.477,1.512-1.512,1.514-3.026.007-6.053,0-9.134,0a9.388,9.388,0,0,1-4,6.32,9.118,9.118,0,0,1-5.7,1.6c-4.248-.187-7.476-3.1-8.695-7.876h-25.222c-1.386,5.145-4.851,8-9.519,7.882-4.363-.115-7.831-3.177-8.879-7.92-.519,0-1.062,0-1.6,0q-3.138.024-6.276.052a1.306,1.306,0,0,1-1.437-1.426c-.015-1.265,0-2.529,0-3.882-.951-.109-2.056.222-2.645-.864Zm55.6,21.613a9.351,9.351,0,0,1,8.533-7.87,8.981,8.981,0,0,1,5.723,1.5,9.357,9.357,0,0,1,4.113,6.351h7.947v-2.592c-.865,0-1.664.023-2.46-.007a1.344,1.344,0,0,1-1.406-1.324,1.363,1.363,0,0,1,1.428-1.306c.374-.019.749,0,1.151,0v-3.885l-.208.133c-.357-.491-.912-.941-1.026-1.483-.175-.828.539-1.222,1.221-1.432v-6.556h-.928q-6.609,0-13.22,0a6.655,6.655,0,0,1-6.963-6.96q-.007-4.669,0-9.337v-.842h-3.967v.939q0,9.751,0,19.5a4.533,4.533,0,0,1-.03.824,1.3,1.3,0,0,1-2.587-.026,5.845,5.845,0,0,1-.026-.907c0-1.479,0-2.958,0-4.46h-50.182v14.493c1.684,0,3.307-.008,4.93,0,.988.007,1.586.5,1.606,1.289.021.819-.6,1.336-1.63,1.35-.759.01-1.519,0-2.26,0v2.6h6.631c.962-4.615,4.464-7.735,8.786-7.874,4.7-.151,8.143,2.661,9.6,7.884Zm-18.543-22.5h15.795v-36.906H5090a.874.874,0,0,0-.062.2c-.006,1.6-.005,3.194-.014,4.791-.006,1.093-.465,1.563-1.542,1.567-1.57.007-3.139,0-4.708,0-1.252,0-1.678-.428-1.681-1.679,0-1.617,0-3.234,0-4.881h-3.936Zm42.8,1.376c-.067-.2-.093-.3-.136-.4-2.1-4.544-4.2-9.083-6.274-13.636a.8.8,0,0,0-.89-.508c-3.25.012-6.5.005-9.748.009-.209,0-.417.038-.644.059,0,3.635-.059,7.212.022,10.787a3.774,3.774,0,0,0,3.764,3.668C5111.545,3383.555,5116.143,3383.517,5120.854,3383.517Zm-74.525-1.367h13.121v-17.09h-2.472c-.052.063-.084.083-.084.1-.011.8-.012,1.6-.029,2.394a1.294,1.294,0,0,1-1.436,1.421q-2.519.02-5.037,0a1.308,1.308,0,0,1-1.456-1.486c-.009-.813,0-1.627,0-2.436h-2.605Zm28.988-13.2V3355.8h-5.2c-.109,1.031.289,2.474-1.261,2.542-1.762.078-1.3-1.518-1.455-2.541h-5.2v13.147Zm-13.126,13.2h13.122v-10.476h-5.224c0,.779.006,1.516,0,2.253-.012,1.043-.507,1.657-1.322,1.656s-1.308-.614-1.319-1.658c-.008-.757,0-1.514,0-2.25h-5.254Zm6.57,23.854a6.6,6.6,0,1,0-6.643,6.608A6.67,6.67,0,0,0,5068.76,3406Zm37.048-6.6a6.605,6.605,0,1,0,6.585,6.667A6.656,6.656,0,0,0,5105.808,3399.4Zm-21.12-54.177v3.864h2.548v-3.864Zm-30.5,19.837h-2.556v1.222h2.556Z" transform="translate(-5041 -3342.539)" fill="#fff"/>
  <path id="Path_6082" data-name="Path 6082" d="M5127.991,3637.93a3.961,3.961,0,1,1,4-3.9A3.993,3.993,0,0,1,5127.991,3637.93Zm1.347-3.941a1.31,1.31,0,1,0-1.349,1.29A1.352,1.352,0,0,0,5129.338,3633.989Z" transform="translate(-5106.874 -3570.503)" fill="#fff"/>
  <path id="Path_6083" data-name="Path 6083" d="M5342.776,3633.977a3.961,3.961,0,1,1-3.934-3.965A3.992,3.992,0,0,1,5342.776,3633.977Zm-3.964,1.3a1.31,1.31,0,1,0-1.307-1.333A1.353,1.353,0,0,0,5338.813,3635.281Z" transform="translate(-5274.028 -3570.506)" fill="#fff"/>
</svg>
