<svg xmlns="http://www.w3.org/2000/svg" width="35.011" height="35.011" viewBox="0 0 35.011 35.011">
  <g id="linked_in" data-name="linked in" transform="translate(0)">
    <g id="linked_in-2" data-name="linked in" transform="translate(-0.001 0)">
      <path id="Path_232" data-name="Path 232" d="M17.506,0A17.506,17.506,0,1,1,0,17.506,17.506,17.506,0,0,1,17.506,0Z" transform="translate(0)" fill="#022b46"/>
    </g>
    <g id="Group_2534" data-name="Group 2534" transform="translate(8.536 5.956)">
      <path id="Path_4838" data-name="Path 4838" d="M193.109,174.3h0v-6.818c0-3.335-.718-5.9-4.617-5.9a4.048,4.048,0,0,0-3.646,2H184.8V161.89h-3.7V174.3h3.85v-6.145c0-1.618.307-3.183,2.311-3.183,1.974,0,2,1.847,2,3.287V174.3Z" transform="translate(-174.524 -155.712)" fill="#fff"/>
      <path id="Path_4839" data-name="Path 4839" d="M8.448,170.176H12.3v12.411H8.448Z" transform="translate(-8.141 -163.997)" fill="#fff"/>
      <path id="Path_4840" data-name="Path 4840" d="M2.232,0A2.243,2.243,0,1,0,4.465,2.232,2.233,2.233,0,0,0,2.232,0Z" fill="#fff"/>
    </g>
  </g>
</svg>
