<svg xmlns="http://www.w3.org/2000/svg" width="35.011" height="35.011" viewBox="0 0 35.011 35.011">
  <g id="twitter" transform="translate(0)">
    <path id="Path_237" data-name="Path 237" d="M17.506,0A17.506,17.506,0,1,1,0,17.506,17.506,17.506,0,0,1,17.506,0Z" transform="translate(0 0)" fill="#022b46"/>
    <path id="Path_238" data-name="Path 238" d="M84.5,83.928a8.717,8.717,0,0,1-2.451.653,4.174,4.174,0,0,0,1.876-2.292,8.649,8.649,0,0,1-2.71,1.005A4.321,4.321,0,0,0,78.1,81.988a4.2,4.2,0,0,0-4.265,4.139,4.017,4.017,0,0,0,.11.944,12.237,12.237,0,0,1-8.792-4.326,4.021,4.021,0,0,0-.578,2.081,4.106,4.106,0,0,0,1.9,3.445,4.338,4.338,0,0,1-1.933-.519v.053a4.176,4.176,0,0,0,3.422,4.06,4.411,4.411,0,0,1-1.124.146,4.3,4.3,0,0,1-.8-.074,4.255,4.255,0,0,0,3.986,2.875,8.721,8.721,0,0,1-5.3,1.772,8.973,8.973,0,0,1-1.019-.058,12.346,12.346,0,0,0,6.541,1.861A11.871,11.871,0,0,0,82.387,86.606l-.012-.536A8.513,8.513,0,0,0,84.5,83.928Z" transform="translate(-56.052 -72.134)" fill="#fff"/>
  </g>
</svg>
