<svg xmlns="http://www.w3.org/2000/svg" width="35.534" height="35.533" viewBox="0 0 35.534 35.533">
  <g id="youtube" transform="translate(0)">
    <ellipse id="Ellipse_282" data-name="Ellipse 282" cx="17.767" cy="17.767" rx="17.767" ry="17.767" transform="translate(0)" fill="#022b46"/>
    <path id="Path_241" data-name="Path 241" d="M139.981,103.326h-1.129l.006-.656a.532.532,0,0,1,.532-.53h.072a.533.533,0,0,1,.533.53Zm-4.234-1.405a.483.483,0,0,0-.52.428v3.189a.531.531,0,0,0,1.042,0v-3.189A.483.483,0,0,0,135.747,101.921Zm6.875-1.783V106.2a2.736,2.736,0,0,1-2.8,2.645H128.288a2.736,2.736,0,0,1-2.8-2.645v-6.065a2.736,2.736,0,0,1,2.8-2.646h11.53A2.737,2.737,0,0,1,142.622,100.137Zm-13.565,6.724v-6.389h1.429v-.947l-3.81-.006v.93l1.189,0v6.407h1.192Zm4.284-5.437H132.15v3.412a6.175,6.175,0,0,1,0,.827c-.1.265-.533.545-.7.029a6.846,6.846,0,0,1,0-.833l-.006-3.435h-1.185l0,3.381c0,.518-.012.9,0,1.081.029.31.018.672.307.878a1.439,1.439,0,0,0,1.82-.61l0,.7h.957v-5.435Zm3.812,3.907,0-2.84c0-1.082-.81-1.731-1.91-.855l0-2.111-1.191,0-.006,7.287.979-.014.089-.454C136.369,107.494,137.156,106.707,137.154,105.331Zm3.73-.376-.894,0c0,.036,0,.076,0,.121v.5a.488.488,0,0,1-.488.484h-.175a.488.488,0,0,1-.489-.484v-1.312h2.046v-.77a12.182,12.182,0,0,0-.061-1.447c-.146-1.018-1.575-1.179-2.3-.658a1.348,1.348,0,0,0-.5.674,3.787,3.787,0,0,0-.152,1.2v1.693C137.872,107.773,141.291,107.376,140.884,104.955ZM136.3,95.762a.805.805,0,0,0,.287.362.833.833,0,0,0,.488.135.756.756,0,0,0,.456-.142,1.089,1.089,0,0,0,.335-.428l-.023.468h1.328V90.508h-1.046v4.4a.436.436,0,0,1-.871,0v-4.4h-1.091v3.81c0,.485.009.809.023.973A1.662,1.662,0,0,0,136.3,95.762Zm-4.025-3.19a4.708,4.708,0,0,1,.135-1.271A1.359,1.359,0,0,1,133.8,90.29a1.652,1.652,0,0,1,.791.179,1.317,1.317,0,0,1,.509.463,1.823,1.823,0,0,1,.246.588,4.682,4.682,0,0,1,.066.925v1.429a7.793,7.793,0,0,1-.062,1.154,1.824,1.824,0,0,1-.261.686,1.24,1.24,0,0,1-.512.47,1.624,1.624,0,0,1-.721.152,1.993,1.993,0,0,1-.768-.129,1.054,1.054,0,0,1-.49-.392,1.724,1.724,0,0,1-.249-.633,6.084,6.084,0,0,1-.074-1.114v-1.5Zm1.04,2.244a.53.53,0,1,0,1.055,0V91.809a.53.53,0,1,0-1.055,0Zm-3.676,1.518h1.254V92l1.481-3.712H131l-.787,2.757-.8-2.764h-1.356L129.637,92Z" transform="translate(-115.691 -82.467)" fill="#fff"/>
  </g>
</svg>
